<svg><symbol id="symbol-22" xmlns="http://www.w3.org/2000/svg" viewBox="0 0 3333 3333" shape-rendering="geometricPrecision" text-rendering="geometricPrecision" image-rendering="optimizeQuality" fill-rule="evenodd" clip-rule="evenodd"><path d="M1667 0c920 0 1667 746 1667 1667 0 920-746 1667-1667 1667C747 3334 0 2588 0 1667 0 747 746 0 1667 0zm186 1117h311V744h-311c-240 0-435 195-435 435v186h-249v373h249v994h373v-994h311l62-373h-373v-186c0-34 28-62 62-62z"/></symbol>

<symbol id="symbol-33" xmlns="http://www.w3.org/2000/svg" viewBox="0 0 3333 3333" shape-rendering="geometricPrecision" text-rendering="geometricPrecision" image-rendering="optimizeQuality" fill-rule="evenodd" clip-rule="evenodd"><path d="M1667 0c920 0 1667 746 1667 1667 0 920-746 1667-1667 1667C747 3334 0 2588 0 1667 0 747 746 0 1667 0zm-215 1336h342v175h5c48-86 164-175 338-175 361 0 428 225 428 517v596h-357v-528c0-126-3-288-186-288-186 0-214 137-214 279v537h-357V1336zm-247-309c0 102-83 186-186 186-102 0-186-83-186-186 0-102 83-186 186-186 102 0 186 83 186 186zm-371 309h371v1113H834V1336z"/></symbol>
</svg>